<?xml version="1.0" encoding="UTF-8"?><svg id="Layer_1" xmlns="http://www.w3.org/2000/svg" viewBox="0 0 615.81 160.49"><defs><style>.cls-1{fill:#fff;}</style></defs><path class="cls-1" d="m99.41,65.64c-4.25-4.5-10.2-6.7-17.84-6.59,6.46-3.27,11.62-7.94,15.51-13.99,3.88-6.05,5.82-12.78,5.82-20.19,0-10.76-3.71-18.02-11.12-21.8-7.41-3.79-17.58-4.06-30.49-.84l-9.09,2.26v31.43l21.49-5.29v16.05l-21.49,5.29v31.6l21.49-5.29v16.05l-21.49,5.29v31.85l10.87-2.7c13.75-3.42,24.31-9.06,31.65-16.93,7.36-7.86,11.04-17.36,11.04-28.48,0-7.28-2.12-13.19-6.37-17.7Z"/><polygon class="cls-1" points="0 33.28 0 65.08 52.2 52.03 52.2 20.23 0 33.28"/><polygon class="cls-1" points="0 80.84 0 112.64 52.2 99.59 52.2 67.79 0 80.84"/><polygon class="cls-1" points="0 128.48 0 160.49 52.54 147.36 52.54 115.35 0 128.48"/><path class="cls-1" d="m235.09,80.12c3.27,4.2,4.9,8.98,4.9,14.38,0,7.78-2.72,13.93-8.15,18.48-5.44,4.55-13.01,6.83-22.73,6.83h-43.33V26.78h41.88c9.45,0,16.85,2.17,22.19,6.49,5.34,4.32,8.02,10.2,8.02,17.62,0,5.48-1.43,10.03-4.31,13.65-2.87,3.62-6.69,6.14-11.46,7.55,5.39,1.15,9.72,3.83,12.98,8.02Zm-46.65-15.7h14.84c3.71,0,6.56-.82,8.55-2.46,1.99-1.63,2.98-4.03,2.98-7.21s-.99-5.62-2.98-7.29c-1.99-1.68-4.84-2.52-8.55-2.52h-14.84v19.49Zm25.51,34.52c2.08-1.73,3.12-4.22,3.12-7.5s-1.08-5.82-3.25-7.68c-2.17-1.85-5.15-2.78-8.95-2.78h-16.44v20.53h16.7c3.8,0,6.73-.86,8.81-2.58Z"/><path class="cls-1" d="m275.77,44.93v18.82h30.35v17.49h-30.35v20.41h34.32v18.15h-56.98V26.78h56.98v18.15h-34.32Z"/><path class="cls-1" d="m340.18,117.42c-5.39-2.21-9.7-5.48-12.92-9.8-3.22-4.34-4.92-9.54-5.1-15.64h24.12c.35,3.44,1.54,6.07,3.58,7.88,2.03,1.81,4.68,2.72,7.95,2.72s6.01-.78,7.95-2.32c1.94-1.55,2.91-3.69,2.91-6.43,0-2.3-.77-4.2-2.32-5.7-1.55-1.5-3.45-2.74-5.69-3.71-2.25-.97-5.46-2.07-9.61-3.31-6.01-1.85-10.91-3.71-14.71-5.56-3.8-1.85-7.07-4.59-9.81-8.22-2.74-3.62-4.11-8.35-4.11-14.18,0-8.66,3.14-15.43,9.41-20.34,6.27-4.91,14.45-7.35,24.52-7.35s18.51,2.45,24.78,7.35c6.27,4.91,9.62,11.72,10.07,20.47h-24.51c-.18-3-1.28-5.36-3.32-7.09-2.03-1.73-4.64-2.59-7.82-2.59-2.74,0-4.94.73-6.62,2.19-1.68,1.46-2.52,3.56-2.52,6.3,0,3,1.41,5.35,4.24,7.02,2.83,1.68,7.24,3.49,13.25,5.44,6.01,2.03,10.89,3.98,14.64,5.83,3.75,1.85,7,4.55,9.74,8.08,2.73,3.54,4.1,8.09,4.1,13.65s-1.35,10.12-4.04,14.44c-2.7,4.34-6.61,7.78-11.73,10.34-5.12,2.56-11.18,3.84-18.16,3.84s-12.9-1.1-18.28-3.31Z"/><path class="cls-1" d="m426.24,114.64c-7.28-4.07-13.08-9.74-17.36-17.03-4.29-7.29-6.43-15.49-6.43-24.59s2.14-17.27,6.43-24.51c4.28-7.25,10.07-12.9,17.36-16.96,7.29-4.07,15.31-6.09,24.05-6.09s16.76,2.03,24.05,6.09c7.29,4.07,13.03,9.72,17.23,16.96,4.2,7.25,6.3,15.42,6.3,24.51s-2.12,17.3-6.36,24.59c-4.24,7.29-9.99,12.96-17.23,17.03-7.24,4.07-15.24,6.09-23.98,6.09s-16.76-2.03-24.05-6.09Zm41.88-22c4.46-4.95,6.7-11.49,6.7-19.62s-2.23-14.77-6.7-19.67c-4.46-4.91-10.4-7.35-17.82-7.35s-13.5,2.43-17.96,7.28c-4.46,4.86-6.69,11.44-6.69,19.75s2.23,14.77,6.69,19.68c4.46,4.91,10.44,7.35,17.96,7.35s13.36-2.47,17.82-7.42Z"/><path class="cls-1" d="m615.81,26.78v93.03h-22.66v-55.79l-20.8,55.79h-18.29l-20.94-55.93v55.93h-22.66V26.78h26.77l26.11,64.4,25.84-64.4h26.64Z"/></svg>